<?xml version="1.0" encoding="utf-8"?><svg xml:space="preserve" viewBox="0 0 100 100" y="0px" x="0px" xmlns:xlink="http://www.w3.org/1999/xlink" xmlns="http://www.w3.org/2000/svg" id="Layer_1" version="1.1" width="200px" height="200px" style="width:100%;height:100%;background-color:rgb(255, 255, 255);animation-play-state:paused" ><g class="ldl-scale" style="transform-origin:50% 50% 0px;transform:rotate(0deg) scale(0.8);animation-play-state:paused" ><path d="M85.52,46.14C85.52,46.14,85.52,46.14,85.52,46.14c-0.15-7.59-6.34-13.69-13.96-13.69c-5.9,0-10.93,3.66-12.98,8.82 c-0.99-0.26-2.02-0.4-3.08-0.4c-6.69,0-12.11,5.42-12.11,12.11c0,6.69,5.42,12.11,12.11,12.11h30.02c5.24,0,9.48-4.24,9.48-9.48 C95,50.39,90.76,46.14,85.52,46.14z" stroke-miterlimit="10" stroke-linejoin="round" stroke-linecap="round" stroke-width="3.5" stroke="#323334" fill="#D2D2D3" style="stroke:rgb(50, 51, 52);fill:rgb(210, 210, 211);animation-play-state:paused" ></path>
<path d="M66.95,49.81c1.08-2.39,1.68-5.03,1.68-7.82c0-10.52-8.53-19.05-19.05-19.05c-7.83,0-14.56,4.73-17.49,11.49 c-1.77-0.9-3.76-1.42-5.88-1.42c-7.15,0-12.94,5.79-12.94,12.94c0,1.48,0.26,2.89,0.72,4.22C8.77,51.83,5,56.71,5,62.48 c0,7.03,5.6,12.73,12.58,12.92v0.02h46.73c7.15,0,12.94-5.79,12.94-12.94C77.26,56.24,72.83,51.03,66.95,49.81z" stroke-miterlimit="10" stroke-linejoin="round" stroke-linecap="round" stroke-width="3.5" stroke="#323334" fill="#F2F2F3" style="stroke:rgb(50, 51, 52);fill:rgb(242, 242, 243);animation-play-state:paused" ></path>
<metadata xmlns:d="https://loading.io/stock/" style="animation-play-state:paused" ><d:name style="animation-play-state:paused" >weather</d:name>


<d:tags style="animation-play-state:paused" >weather,nature,sky,froecast,cloud,cloudy,cold</d:tags>


<d:license style="animation-play-state:paused" >by</d:license>


<d:slug style="animation-play-state:paused" >nl4eoa</d:slug></metadata></g><!-- generated by https://loading.io/ --></svg>